<?xml version="1.0" encoding="UTF-8"?><svg id="Layer_2" xmlns="http://www.w3.org/2000/svg" viewBox="0 0 793.7 793.7"><defs><style>.cls-1{fill:none;}.cls-1,.cls-2,.cls-3,.cls-4,.cls-5,.cls-6,.cls-7,.cls-8,.cls-9,.cls-10,.cls-11{stroke-width:0px;}.cls-2{fill:#141413;}.cls-3{fill:#0a0b0b;}.cls-4{fill:#000;}.cls-5{fill:#adaba8;opacity:.2;}.cls-6{fill:#ed1c24;}.cls-7{fill:#231f20;}.cls-8{fill:#f1edde;}.cls-9{fill:#f8f6e5;}.cls-10{fill:#efcb34;}.cls-11{fill:#0a0a0b;}</style></defs><g id="Layer_1-2"><path class="cls-9" d="M630.68,473.16c1.93-5.48,3.68-16.32,2.98-20.8l-46.65-5.89c-5.78,21.65-15.22,41.81-27.6,59.82l28.11,18.29c.64-.4,1.33-.6,1.69-.68.58-.14,2.05-.38,3.09.29,2.2,1.43,12.87,9,15.72,11.01,2.86-1.54,14.55-9.14,24.09-33.82l1.33-3.44,1.29,3.46c5.87,15.79,16.64,37.05,34.64,48.97,1.16-1.11,1.3-3.06,1.3-3.09l.21-3.98,20.98,29.17-5.19-2.69c-1.49-.77-36.07-18.86-52.27-45.34-8.92,6.01-13.12,18.32-14.14,21.72l55.23,40.94-1-7.48,24,26.62-34.07-11.14,7.24-2.12-59.82-33.88c-2.7,2.32-12.24,11.14-14.13,21.73,30.78,4.08,61.34,28.35,62.64,29.4l4.56,3.66-35.17-7.35,3.56-1.8s1.75-.93,2.3-2.44c-18.2-11.62-42-12.84-58.81-11.81l-3.69.23,2.61-2.61c18.69-18.72,20.89-32.49,21.15-35.74-3-1.78-14.25-8.47-16.44-9.9-1.19-.77-1.82-2.86-1.58-4.52l-29-18.87c-35.98,44.14-90.92,72.36-152.5,72.36-108.39,0-196.26-87.41-196.26-195.25,0-30.77,7.16-59.87,19.91-85.75l-29.26-17.59c-.63.42-1.31.65-1.66.74-.58.16-2.04.45-3.1-.18-2.25-1.35-13.18-8.53-16.1-10.45-2.8,1.65-14.22,9.65-22.88,34.66l-1.21,3.49-1.41-3.41c-6.43-15.57-17.94-36.44-36.35-47.72-1.12,1.15-1.19,3.11-1.19,3.13l-.07,3.99-22-28.41,5.29,2.5c1.51.72,36.71,17.57,53.85,43.46,8.7-6.33,12.46-18.77,13.36-22.21l-56.64-38.96,1.26,7.44-24.93-25.76,34.44,9.93-7.16,2.38,60.98,31.75c2.62-2.41,11.84-11.57,13.35-22.22-30.9-2.99-62.3-26.17-63.64-27.17l-4.69-3.5,35.41,6.11-3.49,1.93s-1.72.99-2.21,2.52c18.6,10.97,42.43,11.34,59.19,9.72l3.68-.36-2.51,2.7c-18.12,19.48-19.76,33.23-19.88,36.46,3.05,1.67,14.54,7.97,16.79,9.32,1.06.64,1.48,2.06,1.61,2.65.08.36.2,1.07.12,1.82l28.67,17.24c12.3-20.54,28.26-38.64,47.02-53.41l-.8-.52-28.67-41.62c-.22.21-13.74,11.18-13.96,11.39l-110.97-66.07c-36.11,39.68-63.76,87.19-80.12,139.67l92.52,55.75c-3.51,17.29-5.36,35.18-5.36,53.5,0,147.57,119.63,267.19,267.19,267.19,57.85,0,111.4-18.39,155.13-49.63l97.83,58.94c39.64-36.31,71.4-81.09,92.41-131.47l-110.16-66.99Z"/><path class="cls-4" d="M396.85,24.3c-109.23,0-207.48,47.01-275.62,121.9l110.97,66.07c.22-.21,13.74-11.18,13.96-11.39l28.67,41.62.8.52c-18.75,14.77-34.72,32.87-47.02,53.41h0s0,0,0,0c-1.19,1.98-2.33,3.99-3.45,6.02-.23.41-.46.82-.68,1.24-.47.86-.93,1.73-1.38,2.6-.28.53-.55,1.07-.83,1.61-.43.84-.86,1.69-1.28,2.54,0,0,0,0,0,.01h0c-12.74,25.89-19.91,54.98-19.91,85.75,0,107.83,87.87,195.25,196.26,195.25,61.58,0,116.52-28.22,152.5-72.36,0,0,0,0,0,0,.84-1.03,1.67-2.07,2.49-3.12,0,0,0,0,0,0,15.89-20.33,27.84-43.87,34.69-69.48l46.65,5.89c.71,4.48-1.04,15.33-2.98,20.8l110.16,66.99c18.4-44.11,28.56-92.52,28.56-143.3,0-205.75-166.8-372.55-372.55-372.55ZM396.85,583.71c-103.2,0-186.86-83.66-186.86-186.86s83.66-186.86,186.86-186.86,186.86,83.66,186.86,186.86-83.66,186.86-186.86,186.86Z"/><path class="cls-3" d="M395.46,662.31c-147.57,0-267.19-119.63-267.19-267.19,0-18.32,1.85-36.22,5.36-53.5l-92.52-55.75c-10.92,35.05-16.81,72.33-16.81,110.98,0,205.76,166.8,372.55,372.55,372.55,96.98,0,185.3-37.06,251.58-97.78l-97.83-58.94c-43.74,31.24-97.29,49.63-155.13,49.63Z"/><path class="cls-9" d="M87.58,400.23l1.67,28.17c.49,8.18-1.6,11.16-8.07,11.54-4.21.25-6.3-.91-7.17-3.95-.3,4-2.41,5.75-7.31,6.04-6.76.4-9.59-2.48-10.05-10.27l-1.76-29.59,32.68-1.94ZM62.18,428.68c.27,4.56,1.33,5.87,4.61,5.67,1.71-.1,2.96-.72,3.49-1.73.39-.81.51-2.24.35-4.94l-1.12-18.96-8.48.5,1.15,19.45ZM75.65,426.26c.18,3.04.39,4.16.88,4.96.59.9,1.7,1.32,3.22,1.23,1.67-.1,2.81-.71,3.29-1.77.4-.76.52-1.95.39-4.15l-1.1-18.57-7.74.46,1.06,17.83Z"/><path class="cls-9" d="M90.89,446.87l5.85,27.11c1.21,5.61,1.09,8.3-.41,10.43-1.24,1.72-3.58,2.93-7.23,3.72-3.5.76-5.56.75-6.97.05s-2.23-1.73-2.98-3.57c.53,4.1-.52,5.28-5.61,6.33l-6.33,1.37-1.6-7.44,4.8-1.04c4.35-1.04,4.99-2.23,3.9-7.07l-3.84-17.8-9.98,2.15-1.58-7.34,32-6.91ZM80.14,475.25c1.16,5.37,2.41,6.51,6.25,5.68,4.41-.95,5.09-2.25,3.91-7.72l-3.82-17.71-10.12,2.18,3.79,17.56Z"/><path class="cls-9" d="M79.99,510.26l-7.35-1.04-3.07-7.92,37.3,5.64,3.71,9.56-23.85,29.04-2.98-7.69,4.69-5.82-8.45-21.78ZM103.75,513.58l-17.77-2.53,6.39,16.47,11.39-13.94Z"/><path class="cls-9" d="M95.47,549.68l32.24,13.5-13.4-23.27,4.98-2.87,18.76,32.59-5.02,2.89-32.34-13.67,14.18,24.63-4.98,2.87-19.45-33.78,5.02-2.89Z"/><path class="cls-9" d="M142.14,574.64l4.38,6.16-26.67,18.98-4.38-6.16,26.67-18.98Z"/><path class="cls-9" d="M151.1,587.4l4.89,5.77-20.29,17.2,15.45,18.23-4.68,3.97-20.34-24,24.97-21.16Z"/><path class="cls-9" d="M174.97,614.38l5.36,5.33-23.1,23.2-5.36-5.33,23.1-23.2Z"/><path class="cls-9" d="M176.05,651.65l-6.89,2.76-6.61-5.33,35.14-13.72,7.99,6.44-6.18,37.07-6.42-5.17,1.16-7.39-18.19-14.66ZM198.29,642.67l-16.67,6.67,13.76,11.09,2.91-17.76Z"/><path class="cls-9" d="M222.31,654.75l10.17,5.84,7.77,35.86,13.43-23.7,6.26,3.59-16.29,28.39-10.22-5.86-7.72-35.66-13.35,23.57-6.34-3.64,16.29-28.39Z"/><path class="cls-9" d="M305.86,693.64l-6.16,17.6c-2.27,6.49-3.94,9.02-6.75,10.22-1.61.74-4,.73-6.83.05-1.05-.26-4.23-1.27-7.15-2.29-6.58-2.3-9.09-3.6-10.8-5.55-1.88-2.22-2.09-4.89-.64-9.01l.1-.28.08-.23,1.02-2.76,6.81,2.38-.52,1.48c-.91,2.59-.97,3.82-.31,4.89.61.94,3.15,2.3,6.62,3.51,4.63,1.62,6.8,1.96,8.07,1.16,1.07-.67,1.62-1.67,2.94-5.42l6.39-18.25,7.13,2.5Z"/><path class="cls-9" d="M313.45,695.42l7.32,1.86-8.06,31.73-7.33-1.86,8.06-31.73Z"/><path class="cls-9" d="M368.29,705.43l-2.95,20.4c-.89,6.17-2.23,8.55-5.59,9.85-3,1.2-5.81,1.09-17.28-.57-11.22-1.63-14.52-2.8-16.52-5.81-1.38-2.13-1.54-4.44-.67-10.41l2.79-19.29,7.48,1.08-2.46,16.95q-.63,4.32-.58,5.72c.03,3.53,1.84,4.43,11.55,5.84,4.37.63,8.43,1.02,9.59.89,1.96-.21,3.15-1.23,3.74-3.23q.18-.57.88-5.08l2.53-17.44,7.48,1.08Z"/><path class="cls-9" d="M387.51,723.07l-.25,6.33-16.73-.67.25-6.33,16.73.67Z"/><path class="cls-9" d="M424.19,704.39l1.03,18.62c.38,6.86-.19,9.84-2.33,12.02-1.21,1.3-3.42,2.2-6.29,2.66-1.07.16-4.4.44-7.49.61-6.96.38-9.77.15-12.1-1-2.58-1.33-3.79-3.72-4.03-8.08l-.02-.29v-.25s-.13-2.94-.13-2.94l7.2-.4.09,1.57c.15,2.74.56,3.9,1.58,4.63.92.64,3.79.92,7.46.72,4.9-.27,7.04-.78,7.9-2.01.73-1.02.86-2.16.64-6.13l-1.07-19.31,7.55-.42Z"/><path class="cls-9" d="M431.93,703.13l7.48-1.07,4.64,32.41-7.48,1.07-4.64-32.41Z"/><path class="cls-9" d="M461.09,704.16l-14.99,3.59-1.43-5.97,37.28-8.93,1.43,5.97-14.94,3.58,6.2,25.87-7.35,1.76-6.2-25.87Z"/><path class="cls-9" d="M501.02,709.71l.13.32c.78,1.96,1.56,2.87,2.62,3.03,1.35.21,3.83-.46,8.3-2.23,3.79-1.5,6.11-2.58,9.23-4.29,1.64-.92,2.38-1.58,2.68-2.43.3-.96.26-2-.12-2.96-.7-1.78-1.82-2.34-4.1-1.96-1.39.23-1.43.25-9.75,3.49l-4.38,1.73c-6.45,2.5-9.16,3-11.46,2.11-1.97-.7-3.41-2.34-4.48-5.04-1.34-3.38-1.62-6.49-.66-8.34,1.29-2.73,5.66-5.3,15.7-9.28,6.11-2.42,9.49-3.49,11.84-3.69,4.22-.4,6.36,1.12,8.22,5.82l.24.59-6.84,2.71c-.75-1.76-1.57-2.49-2.71-2.57-1.51-.09-4.58.7-7.95,2.04-5.75,2.28-9.62,4.23-10.72,5.46-.9.94-1.03,2.2-.47,3.62.52,1.32,1.28,2.03,2.34,2.19,1.28.18,3.09-.33,7.88-2.22l5.16-2.04c9.13-3.61,12.11-4.22,14.84-2.92,1.8.82,3.19,2.59,4.38,5.6,1.27,3.19,1.45,5.66.52,7.71-1.25,2.71-4.92,4.9-15.19,8.97-10.95,4.34-14.57,5.19-17.21,4.12-1.89-.78-3.21-2.37-4.35-5.25-.11-.27-.38-.96-.57-1.57l6.89-2.73Z"/><path class="cls-9" d="M562.97,654.03l10.41,17.79c3.15,5.38,3.59,8.08,1.77,11.19-1.6,2.81-3.86,4.48-13.86,10.33-9.79,5.72-13.1,6.87-16.54,5.75-2.41-.81-3.97-2.51-7.02-7.72l-9.84-16.82,6.52-3.82,8.65,14.79q2.21,3.77,3.11,4.83c2.23,2.74,4.2,2.32,12.67-2.64,3.81-2.23,7.23-4.46,8.06-5.28,1.4-1.39,1.7-2.93.91-4.86q-.21-.56-2.47-4.52l-8.9-15.21,6.52-3.82Z"/><circle class="cls-10" cx="396.85" cy="396.85" r="182.34" transform="translate(-164.38 396.85) rotate(-45)"/><path class="cls-11" d="M396.85,0c-118.13,0-224.21,51.62-296.9,133.52-35.56,40.07-63.13,87.39-80.23,139.46C6.93,311.96,0,353.59,0,396.85c0,219.17,177.68,396.85,396.85,396.85,105.88,0,202.07-41.46,273.22-109.04,8.97-8.52,17.55-17.46,25.7-26.78,60.98-69.77,97.93-161.09,97.93-261.03C793.7,177.68,616.02,0,396.85,0ZM654.7,675.4c-67.7,62.7-158.3,101.03-257.85,101.03-209.63,0-379.58-169.94-379.58-379.58,0-39.98,6.19-78.52,17.65-114.71,16.58-52.36,44.21-99.81,80.15-139.61C184.54,65.61,285.05,17.27,396.85,17.27c209.63,0,379.58,169.94,379.58,379.58,0,52.12-10.51,101.78-29.52,146.99-21.14,50.28-52.79,95.05-92.21,131.56Z"/><path class="cls-5" d="M396.85,17.27c-111.8,0-212.31,48.34-281.78,125.26-35.94,39.8-63.57,87.25-80.15,139.61-11.46,36.19-17.65,74.73-17.65,114.71,0,209.63,169.94,379.58,379.58,379.58,99.55,0,190.15-38.33,257.85-101.03,39.42-36.51,71.07-81.28,92.21-131.56,19.01-45.21,29.52-94.87,29.52-146.99,0-209.63-169.94-379.58-379.58-379.58ZM740.84,540.15c-21.01,50.38-52.77,95.16-92.41,131.47-66.28,60.72-154.6,97.78-251.58,97.78-205.76,0-372.55-166.8-372.55-372.55,0-38.65,5.89-75.93,16.81-110.98,16.36-52.49,44.01-99.99,80.12-139.67C189.37,71.31,287.62,24.3,396.85,24.3c205.76,0,372.55,166.8,372.55,372.55,0,50.78-10.17,99.19-28.56,143.3Z"/><path class="cls-7" d="M160.36,381.08c.04-.59.22-1.12.53-1.57.31-.46.72-.81,1.22-1.07.5-.26,1.07-.36,1.7-.32.63.04,1.17.23,1.63.55.46.32.81.73,1.05,1.22.25.49.35,1.04.31,1.63-.04.58-.22,1.1-.53,1.56-.31.46-.72.82-1.21,1.08-.5.26-1.06.36-1.69.32-.63-.04-1.17-.23-1.64-.55-.46-.32-.82-.73-1.07-1.24-.25-.5-.35-1.04-.31-1.62Z"/><path class="cls-7" d="M155.71,393.64l18.05,7.51.1,4.08-17.67,8.44-.1-4.34,15.61-6.94.04,1.66-15.93-6.18-.1-4.24ZM159.64,397.55l3.16.97.22,9.24-3.11,1.15-.27-11.35Z"/><path class="cls-7" d="M156.46,416.61l17.76-1.99.9,8.07c.22,1.93.04,3.67-.53,5.22-.57,1.55-1.47,2.82-2.71,3.8-1.24.98-2.75,1.57-4.54,1.77s-3.4-.04-4.82-.72c-1.42-.68-2.58-1.71-3.48-3.1-.9-1.39-1.46-3.05-1.67-4.97l-.9-8.07ZM160.27,420.37l.42,3.73c.13,1.18.47,2.18,1.02,3.01.55.82,1.26,1.43,2.16,1.81.89.39,1.89.52,3.01.39,1.13-.13,2.09-.48,2.86-1.05.77-.58,1.34-1.32,1.69-2.24.35-.92.46-1.97.33-3.16l-.42-3.73-11.06,1.24Z"/><path class="cls-7" d="M161.56,450.16l-.93-4.06,17.42-3.98,3.01,13.16-3.23.74-2.08-9.11-14.18,3.24ZM171.07,447.64l1.91,8.36-3.23.74-1.91-8.36,3.23-.74Z"/><path class="cls-7" d="M166.88,471.14c-.43-1.35-.6-2.66-.52-3.93.08-1.27.38-2.46.91-3.55.53-1.1,1.25-2.04,2.18-2.85.92-.8,2.02-1.4,3.28-1.8,1.28-.41,2.53-.55,3.74-.42,1.21.12,2.34.48,3.41,1.08,1.06.59,1.99,1.38,2.79,2.37.8.99,1.41,2.16,1.83,3.5.43,1.35.6,2.65.53,3.91-.07,1.26-.37,2.44-.9,3.54-.53,1.1-1.25,2.04-2.18,2.85-.92.8-2.03,1.41-3.31,1.81-1.27.4-2.51.54-3.74.42-1.23-.12-2.37-.48-3.43-1.07-1.06-.59-1.99-1.38-2.77-2.37-.79-.99-1.39-2.15-1.81-3.48ZM170.21,470.06c.24.76.6,1.42,1.07,1.98s1.03,1,1.68,1.33c.65.33,1.34.52,2.09.58.74.06,1.52-.04,2.33-.3.81-.26,1.5-.62,2.07-1.1.57-.48,1.03-1.04,1.37-1.68.34-.64.54-1.33.61-2.05s-.02-1.47-.27-2.23c-.24-.76-.6-1.43-1.07-1.99-.47-.56-1.03-1.01-1.68-1.33-.65-.32-1.34-.51-2.08-.57s-1.52.04-2.33.3c-.81.26-1.5.62-2.07,1.1-.57.48-1.03,1.03-1.37,1.67-.34.64-.55,1.32-.61,2.05s.03,1.48.27,2.24Z"/><path class="cls-7" d="M171.68,484.28l16.49-6.88,2.98,7.14c.62,1.48.91,2.85.87,4.12-.03,1.27-.38,2.38-1.03,3.33s-1.59,1.69-2.82,2.2c-1.24.52-2.43.67-3.56.46-1.13-.21-2.15-.75-3.06-1.63-.91-.88-1.67-2.05-2.29-3.53l-2.1-5.04,2.38,1.05-6.27,2.61-1.6-3.84ZM176.06,494.78l4.25-6.64,1.71,4.1-4.25,6.64-1.71-4.1ZM179.12,485.68l1.09-2.5,2.02,4.83c.48,1.16,1.1,1.94,1.85,2.32.75.39,1.58.39,2.49.01.91-.38,1.49-.97,1.73-1.77.25-.8.13-1.79-.36-2.95l-2.02-4.83,2.54.99-9.35,3.9Z"/><path class="cls-7" d="M179.46,502.6l15.77-8.4,1.61,3.02-7.55,12.64-.85-1.6,14.63.65,1.62,3.04-15.77,8.4-1.81-3.4,10.5-5.65.36.68-11.66-.61-.86-1.62,5.96-10.09.4.74-10.52,5.6-1.81-3.4Z"/><path class="cls-7" d="M190.5,523l19.28-3.25,2.25,3.4-10.47,16.55-2.4-3.62,9.53-14.18.92,1.38-16.77,3.24-2.34-3.53ZM195.9,524.23l3.2-.86,5.1,7.7-2.03,2.63-6.27-9.47Z"/><path class="cls-7" d="M203.36,542.16l13.89-11.23,2.15,2.66-5.02,13.84-1.14-1.41,14.49-2.13,2.17,2.68-13.89,11.23-2.42-3,9.24-7.54.48.6-11.57,1.61-1.16-1.43,3.94-11.03.53.65-9.27,7.5-2.42-3Z"/><path class="cls-7" d="M216.03,563.43l5.64-2.93-1.32,1.99c-.49-.52-.73-1.11-.73-1.74,0-.64.27-1.2.81-1.7.56-.52,1.17-.76,1.82-.72.65.04,1.22.32,1.69.83.49.52.72,1.11.69,1.76-.02.65-.31,1.23-.86,1.74-.15.14-.31.27-.49.39-.18.12-.41.24-.68.37-.28.13-.66.28-1.15.45l-3.68,1.43-1.73-1.87Z"/><path class="cls-7" d="M235.77,577.95c-1.88-1.7-2.88-3.55-3-5.56-.12-2.01.71-3.99,2.48-5.95l6.68-7.41,3.09,2.79-6.61,7.34c-1.13,1.25-1.69,2.39-1.68,3.42.01,1.03.48,1.96,1.4,2.79.93.84,1.91,1.22,2.94,1.12,1.02-.09,2.1-.77,3.23-2.02l6.61-7.34,3.01,2.72-6.68,7.41c-1.77,1.96-3.65,2.98-5.66,3.08-2.01.09-3.95-.71-5.82-2.39Z"/><path class="cls-7" d="M248.6,588.37l8.86-11.48-4.53-3.49,2.06-2.67,12.32,9.51-2.06,2.67-4.53-3.49-8.86,11.48-3.27-2.53Z"/><path class="cls-7" d="M265.31,600.46l9.46-15.16,3.53,2.2-7.68,12.3,7.56,4.72-1.78,2.86-11.09-6.92Z"/><path class="cls-7" d="M284.44,607.97l8.59,4.55-1.55,2.93-12.22-6.47,8.36-15.79,11.93,6.32-1.55,2.93-8.3-4.4-5.26,9.92ZM287.62,601.31l7.6,4.02-1.52,2.86-7.6-4.03,1.52-2.86Z"/><path class="cls-7" d="M303.14,621.01c-1.3-.56-2.4-1.28-3.32-2.17s-1.61-1.88-2.07-2.99c-.47-1.11-.7-2.27-.7-3.5,0-1.22.26-2.45.8-3.69.53-1.23,1.24-2.27,2.13-3.11s1.91-1.47,3.05-1.88c1.14-.42,2.35-.6,3.62-.54,1.27.06,2.56.37,3.88.93,1.45.63,2.66,1.43,3.61,2.42.96.99,1.63,2.11,2.03,3.38l-3.38,1.21c-.33-.9-.79-1.66-1.36-2.27-.57-.61-1.28-1.09-2.12-1.46-.78-.34-1.56-.52-2.32-.54s-1.49.09-2.17.36c-.68.26-1.28.66-1.82,1.19-.53.53-.97,1.19-1.31,1.97-.32.75-.5,1.5-.52,2.26-.02.76.1,1.48.38,2.15.27.67.68,1.28,1.21,1.83.53.55,1.19.99,1.97,1.32.75.32,1.53.51,2.35.57.82.06,1.69-.06,2.61-.35l.98,3.67c-1.2.3-2.47.37-3.79.22-1.32-.15-2.57-.48-3.74-.99ZM307.41,619.8l2.66-6.17,3.47,1.49-2.87,6.66-3.26-1.99Z"/><path class="cls-7" d="M319.41,623.44l9.21,3.11-1.06,3.14-13.1-4.43,5.72-16.93,12.79,4.32-1.06,3.14-8.9-3.01-3.6,10.64ZM321.48,616.35l8.15,2.75-1.04,3.07-8.15-2.75,1.04-3.07Z"/><path class="cls-7" d="M331.68,630.93l4.3-17.34,3.32.82,7.13,15.02-1.61-.4,3.1-12.49,3.96.98-4.3,17.34-3.32-.82-7.13-15.02,1.61.4-3.1,12.49-3.96-.98Z"/><path class="cls-7" d="M352.82,635.94l2.71-17.66,8.02,1.23c1.92.29,3.55.92,4.9,1.87,1.35.96,2.34,2.16,2.96,3.6.62,1.45.8,3.06.52,4.84s-.92,3.27-1.95,4.47c-1.03,1.19-2.33,2.04-3.9,2.55s-3.32.61-5.24.32l-8.02-1.23ZM357.44,633.24l3.71.57c1.18.18,2.23.11,3.17-.2.93-.31,1.71-.85,2.31-1.61.61-.76,1-1.69,1.17-2.8.17-1.13.08-2.14-.27-3.04-.35-.9-.93-1.64-1.73-2.21-.8-.58-1.79-.96-2.96-1.14l-3.71-.57-1.69,11Z"/><path class="cls-7" d="M372.21,638.86l9.08-17.31,4.08.27,6.84,18.35-4.33-.28-5.52-16.17,1.66.11-7.57,15.31-4.23-.28ZM376.45,635.3l1.25-3.06,9.22.6.87,3.2-11.33-.74Z"/><path class="cls-7" d="M402.83,640.19l-1.07-17.83,3.41-.2,8.35,12.13-1.81.11,6.69-13.03,3.44-.21,1.07,17.83-3.85.23-.76-11.89.76-.05-5.42,10.35-1.83.11-6.69-9.62.84-.05.71,11.9-3.85.23Z"/><path class="cls-7" d="M426,638.66l5.08-18.88,4.03-.63,10.68,16.42-4.29.67-8.92-14.57,1.64-.26-4.05,16.6-4.19.65ZM429.37,634.26l.55-3.26,9.13-1.43,1.54,2.94-11.22,1.75Z"/><path class="cls-7" d="M448.65,634.91l-4.29-17.34,3.32-.82,13.32,9.95-1.61.4-3.09-12.49,3.96-.98,4.29,17.34-3.32.82-13.32-9.95,1.61-.4,3.09,12.49-3.96.98Z"/><path class="cls-7" d="M469.7,629.46l-5.86-16.88,7.67-2.66c1.83-.64,3.57-.85,5.21-.63,1.64.21,3.07.81,4.3,1.8,1.23.99,2.13,2.34,2.73,4.04.59,1.7.71,3.32.36,4.86-.35,1.54-1.1,2.9-2.26,4.08-1.16,1.18-2.65,2.1-4.48,2.73l-7.67,2.66ZM472.52,624.91l3.54-1.23c1.13-.39,2.03-.94,2.71-1.66.68-.71,1.11-1.55,1.29-2.5.18-.95.09-1.96-.28-3.02-.37-1.08-.93-1.93-1.66-2.56-.73-.63-1.59-1.01-2.56-1.15-.98-.14-2.03-.01-3.15.38l-3.54,1.23,3.65,10.51Z"/><path class="cls-7" d="M488.19,622.99l-.08-19.55,3.73-1.67,14.63,13.02-3.96,1.78-12.44-11.7,1.51-.68.48,17.08-3.87,1.73ZM490.27,617.85l-.33-3.29,8.43-3.78,2.26,2.42-10.36,4.65Z"/><path class="cls-7" d="M511.38,612.03l-6.89-12.75-5.03,2.72-1.6-2.96,13.7-7.4,1.6,2.96-5.03,2.72,6.89,12.75-3.64,1.97Z"/><path class="cls-7" d="M528.93,597.1c-.5.33-1.02.5-1.58.53-.55.03-1.08-.08-1.59-.33-.51-.25-.93-.63-1.28-1.16-.35-.53-.53-1.07-.55-1.62-.02-.56.09-1.08.34-1.58.24-.5.61-.91,1.11-1.24.48-.32,1-.49,1.56-.52.56-.03,1.09.07,1.59.31.5.24.93.62,1.27,1.15.35.53.53,1.07.56,1.64.02.56-.09,1.1-.34,1.6-.25.5-.62.91-1.1,1.23Z"/><path class="cls-9" d="M258.74,109.67l-29.13,12.85-7.14-16.18,78.16-34.49,7.14,16.18-29.13,12.85,21.73,49.23-19.91,8.79-21.73-49.23Z"/><path class="cls-9" d="M322.38,68.75l21.36-4.16,13.66,70.19-21.36,4.16-13.66-70.19Z"/><path class="cls-9" d="M449.03,61.83l-.5,16.18-57.76-1.77-.38,12.32,54.43,1.67-.43,14.14-54.43-1.67-.39,12.64,58.51,1.8-.5,16.18-79.94-2.45,2.19-71.47,79.19,2.43Z"/><path class="cls-9" d="M480.21,67.47l57.36,22.56c11.77,4.63,16.57,7.67,19.1,12.35,2.67,4.62,2.23,11.01-1.3,19.99-4.87,12.37-9.78,16.08-19.01,14.64,7.73,4.65,8.85,9.13,4.69,19.12l-4.12,10.48-20.55-8.08,3.26-8.28c2.73-7.22,1.32-9.5-7.84-12.87l-31.03-12.2-6.59,16.76-20.15-7.93,26.17-66.54ZM518.8,121.35c9.78,3.85,12.14,3.39,14.73-3.19,1.69-4.29,1.99-6.24,1.25-8.15-.87-2.18-2.45-3.15-8.53-5.54l-32.32-12.71-6.75,17.16,31.62,12.44Z"/><path class="cls-9" d="M667.22,192.16c5.98,9.5,5.43,17.29-1.99,26.17-1.84,2.28-5.95,6.35-12.34,12.24-12.7,11.69-19.06,15.07-26.9,13.98-5.59-.69-10.91-3.94-18.27-11.3-2.77-2.69-9.31-9.64-14.03-14.77-11.54-12.54-17.19-19.15-19.46-22.88-4.35-6.78-5.26-12.2-3.21-17.73,1.98-5.61,5.41-9.64,16.92-20.24,8.83-8.13,11.19-10.01,15.61-12.33,6.98-3.66,12.81-3.34,19.99.98,5.33,3.25,10.07,7.78,22.85,21.66,13.94,15.14,18.07,19.94,20.85,24.23ZM617.1,165.73c-3.62-.61-6.8,1.16-14.37,8.13-7.73,7.11-9.99,10.36-9.83,13.86.23,3.73,2.31,6.62,13.41,18.69,12.71,13.8,15.79,16.21,19.99,15.7,3.27-.24,6.32-2.32,13.34-8.78,13.25-12.2,13.19-12.58-4.96-32.3-10.82-11.75-14.19-14.62-17.58-15.29Z"/><path class="cls-9" d="M698.21,235.14l12.05,32.46-35.89,59.51,50.77-19.41,7.16,19.3-67.04,24.88-12.16-32.76,35.61-58.72-50.27,19.23-7.27-19.6,67.04-24.88Z"/><path class="cls-9" d="M735.63,440.89l-16.18-.26.94-57.77-12.33-.2-.88,54.45-14.15-.23.88-54.45-12.65-.21-.95,58.52-16.18-.26,1.3-79.96,71.49,1.16-1.28,79.21Z"/><path class="cls-4" d="M199.81,277.37c-.13-.58-.56-2.01-1.61-2.65-2.25-1.35-13.73-7.65-16.79-9.32.12-3.23,1.76-16.98,19.88-36.46l2.51-2.7-3.68.36c-16.76,1.63-40.6,1.25-59.19-9.72.49-1.53,2.19-2.51,2.21-2.52l3.49-1.93-35.41-6.11,4.69,3.5c1.34,1,32.74,24.18,63.64,27.17-1.51,10.65-10.73,19.81-13.35,22.22l-60.98-31.75,7.16-2.38-34.44-9.93,24.93,25.76-1.26-7.44,56.64,38.96c-.9,3.44-4.66,15.88-13.36,22.21-17.14-25.89-52.33-42.75-53.85-43.46l-5.29-2.5,22,28.41.07-3.99s.07-1.98,1.19-3.13c18.41,11.28,29.92,32.15,36.35,47.72l1.41,3.41,1.21-3.49c8.66-25.01,20.08-33.01,22.88-34.66,2.92,1.92,13.85,9.1,16.1,10.45,1.06.64,2.52.34,3.1.18.36-.1,1.04-.32,1.66-.74l29.26,17.59c2.36-4.79,4.91-9.46,7.63-14.01l-28.67-17.24c.08-.75-.04-1.46-.12-1.82Z"/><path class="cls-4" d="M580.41,542.46c2.2,1.43,13.44,8.12,16.44,9.9-.26,3.25-2.46,17.02-21.15,35.74l-2.61,2.61,3.69-.23c16.81-1.03,40.62.18,58.81,11.81-.55,1.51-2.28,2.43-2.3,2.44l-3.56,1.8,35.17,7.35-4.56-3.66c-1.3-1.05-31.86-25.32-62.64-29.4,1.88-10.59,11.43-19.42,14.13-21.73l59.82,33.88-7.24,2.12,34.07,11.14-24-26.62,1,7.48-55.23-40.94c1.02-3.41,5.22-15.71,14.14-21.72,16.21,26.48,50.79,44.57,52.27,45.34l5.19,2.69-20.98-29.17-.21,3.98s-.14,1.98-1.3,3.09c-18-11.92-28.76-33.19-34.64-48.97l-1.29-3.46-1.33,3.44c-9.54,24.69-21.24,32.28-24.09,33.82-2.85-2.02-13.52-9.59-15.72-11.01-1.04-.68-2.51-.43-3.09-.29-.36.08-1.05.28-1.69.68l-28.11-18.29c-3.02,4.39-6.22,8.66-9.58,12.79l29,18.87c-.25,1.67.39,3.75,1.58,4.52Z"/><path class="cls-10" d="M284.23,219.73c-1.03.66-2.09,1.11-3.17,1.34-1.08.23-2.13.24-3.16.04s-1.98-.6-2.86-1.19c-.88-.59-1.64-1.38-2.27-2.36-.63-.98-1.03-1.99-1.2-3.04-.17-1.05-.13-2.08.12-3.11.25-1.02.71-1.98,1.37-2.86.66-.89,1.51-1.67,2.55-2.34,1.15-.74,2.32-1.22,3.49-1.43,1.17-.21,2.31-.15,3.41.17l-.77,3.02c-.81-.2-1.57-.24-2.29-.12s-1.41.39-2.08.82c-.62.4-1.13.87-1.52,1.41-.39.54-.65,1.12-.79,1.73-.14.62-.15,1.24-.03,1.88s.38,1.27.78,1.89c.38.6.84,1.09,1.38,1.47.54.38,1.11.64,1.73.77.62.13,1.25.13,1.9.01.65-.12,1.29-.38,1.91-.78.6-.38,1.11-.85,1.55-1.42s.78-1.24,1.01-2.05l3.11,1.08c-.37,1.01-.93,1.95-1.68,2.83-.75.88-1.59,1.62-2.52,2.21ZM285.43,216.07l-3.15-4.9,2.76-1.77,3.4,5.29-3.01,1.38Z"/><path class="cls-10" d="M292.09,214.55l-7.33-13.65,5.91-3.17c1.22-.66,2.38-1.02,3.48-1.1,1.1-.08,2.08.12,2.96.61.88.48,1.59,1.23,2.13,2.25.55,1.03.78,2.04.7,3.03-.09.99-.47,1.92-1.15,2.78-.68.86-1.63,1.62-2.85,2.27l-4.17,2.24.71-2.14,2.78,5.19-3.18,1.71ZM292.67,208.01l-2.25-.73,4-2.15c.96-.52,1.58-1.11,1.85-1.8.27-.68.2-1.4-.2-2.15-.4-.75-.96-1.2-1.68-1.35-.71-.14-1.55.04-2.51.56l-4,2.15.64-2.28,4.15,7.74ZM300.78,209.89l-6.09-3.11,3.39-1.82,6.09,3.11-3.39,1.82Z"/><path class="cls-10" d="M304.47,207.87l.07-16.95,3.24-1.42,12.59,11.39-3.44,1.51-10.71-10.24,1.32-.58.29,14.81-3.36,1.48ZM306.32,203.43l-.26-2.86,7.34-3.22,1.95,2.12-9.02,3.96Z"/><path class="cls-10" d="M321.75,200.44l-5.1-14.63,6.33-2.21c1.31-.46,2.51-.64,3.61-.54s2.04.45,2.83,1.06c.79.62,1.38,1.47,1.76,2.55.38,1.1.45,2.13.21,3.1s-.76,1.83-1.56,2.59c-.8.76-1.85,1.37-3.16,1.83l-4.47,1.56,1.01-2.07,1.94,5.56-3.41,1.19ZM323.35,194.07l-2.11-1.07,4.28-1.49c1.03-.36,1.73-.85,2.11-1.48.37-.63.42-1.35.14-2.16s-.76-1.34-1.45-1.59c-.68-.25-1.54-.2-2.57.16l-4.28,1.49.99-2.15,2.89,8.3Z"/><path class="cls-10" d="M336.71,195.36l-3.98-14.98,6.48-1.72c1.34-.36,2.55-.45,3.64-.27,1.09.18,2,.6,2.74,1.28s1.26,1.56,1.56,2.68c.3,1.13.29,2.16-.02,3.11-.31.95-.9,1.77-1.75,2.47-.85.7-1.95,1.23-3.29,1.58l-4.58,1.22,1.17-1.98,1.51,5.69-3.49.93ZM338.79,189.13l-2.02-1.23,4.39-1.16c1.06-.28,1.79-.72,2.21-1.32.42-.6.52-1.31.3-2.14-.22-.83-.66-1.39-1.32-1.7-.66-.31-1.52-.32-2.58-.04l-4.39,1.16,1.15-2.07,2.26,8.49Z"/><path class="cls-10" d="M352.07,191.45l-2.93-15.21,3.54-.68,2.38,12.34,7.58-1.46.55,2.87-11.13,2.15Z"/><path class="cls-10" d="M365.16,189.09l-2.19-15.34,3.57-.51,2.19,15.34-3.57.51Z"/><path class="cls-10" d="M372.23,188.03l-1.28-15.44,2.96-.24,10.03,10.36-1.43.12-.92-11.12,3.53-.29,1.28,15.44-2.96.24-10.03-10.37,1.43-.12.92,11.12-3.53.29Z"/><path class="cls-10" d="M397.39,186.98c-1.23.02-2.36-.16-3.4-.53-1.04-.37-1.94-.92-2.7-1.63-.76-.71-1.36-1.55-1.8-2.52s-.66-2.03-.68-3.2c-.02-1.16.17-2.24.58-3.22.4-.98.98-1.84,1.74-2.57.76-.73,1.65-1.31,2.67-1.71,1.03-.41,2.16-.62,3.4-.64,1.37-.02,2.61.19,3.72.63,1.11.44,2.04,1.09,2.81,1.95l-2.24,2.16c-.59-.6-1.21-1.03-1.88-1.31-.67-.28-1.4-.41-2.2-.4-.74.01-1.41.14-2.03.4s-1.15.61-1.59,1.05c-.44.45-.78.98-1.01,1.59-.23.61-.34,1.28-.33,2.02.01.71.14,1.37.4,1.97.25.61.61,1.13,1.07,1.57.46.44.99.77,1.61,1.01.62.24,1.29.36,2.03.34.71-.01,1.4-.14,2.06-.39.67-.25,1.31-.65,1.94-1.2l2.08,2.56c-.85.66-1.82,1.17-2.92,1.52-1.1.35-2.2.53-3.31.55ZM400.33,184.49l-.09-5.82,3.28-.05.1,6.29-3.28-.41Z"/><path class="cls-10" d="M418.07,188.05c-1.23-.12-2.4-.41-3.51-.85-1.1-.44-1.98-.97-2.61-1.56l1.48-2.56c.6.54,1.34,1,2.22,1.39.88.39,1.78.64,2.71.73.71.07,1.28.06,1.73-.05.45-.1.79-.27,1.02-.49.23-.22.36-.49.39-.82.04-.41-.09-.75-.39-1.03-.3-.27-.71-.52-1.23-.72-.52-.21-1.09-.41-1.71-.62-.62-.2-1.24-.44-1.85-.7-.62-.26-1.18-.59-1.68-.97-.5-.38-.88-.86-1.15-1.43-.26-.57-.35-1.26-.27-2.06.09-.88.4-1.66.95-2.34.54-.68,1.32-1.19,2.32-1.52,1-.34,2.23-.43,3.69-.28.97.1,1.92.31,2.84.64.92.33,1.72.75,2.38,1.26l-1.39,2.57c-.65-.47-1.33-.83-2.05-1.11s-1.41-.44-2.08-.51c-.7-.07-1.28-.05-1.72.06-.44.11-.77.29-1,.53-.22.24-.35.53-.39.85-.04.41.09.76.38,1.04.3.28.7.52,1.22.71.51.19,1.09.39,1.72.6.63.21,1.25.44,1.86.71.61.27,1.16.59,1.66.96.5.37.88.84,1.16,1.41.28.57.37,1.25.29,2.04-.09.87-.41,1.64-.96,2.31-.55.67-1.33,1.18-2.34,1.52-1.01.34-2.25.44-3.7.29Z"/><path class="cls-10" d="M434.15,190.29c-1.18-.21-2.24-.59-3.18-1.15-.94-.56-1.72-1.26-2.34-2.1s-1.05-1.78-1.3-2.81-.27-2.12-.07-3.27c.2-1.15.59-2.17,1.17-3.05.58-.89,1.31-1.62,2.18-2.2.87-.58,1.85-.98,2.92-1.19,1.08-.21,2.2-.21,3.38,0,1.32.23,2.48.67,3.48,1.31,1,.64,1.78,1.47,2.35,2.49l-2.65,1.7c-.41-.68-.91-1.24-1.5-1.65-.59-.42-1.27-.69-2.02-.82-.71-.12-1.39-.12-2.03.02-.64.14-1.21.38-1.72.74s-.94.82-1.28,1.37c-.34.56-.58,1.2-.7,1.92-.13.73-.12,1.41.02,2.05s.38,1.21.74,1.72.82.94,1.37,1.28c.55.34,1.19.58,1.9.7.76.13,1.48.1,2.19-.1.7-.2,1.36-.55,1.97-1.06l1.93,2.49c-.88.76-1.9,1.28-3.06,1.56-1.16.28-2.4.3-3.74.07Z"/><path class="cls-10" d="M446.18,192.52l-3.49-.9,3.88-15,3.49.9-3.88,15ZM454.81,188.19l-7.33-1.89.76-2.94,7.33,1.89-.76,2.94ZM456.84,179.27l3.47.9-3.88,15-3.47-.9,3.88-15Z"/><path class="cls-10" d="M466.76,198.92c-1.16-.41-2.15-.97-2.99-1.69-.84-.72-1.5-1.55-1.99-2.48-.48-.94-.76-1.94-.83-2.99-.07-1.06.08-2.13.47-3.22.39-1.1.94-2.03,1.66-2.81.72-.77,1.56-1.37,2.52-1.8.96-.43,2-.66,3.1-.69,1.1-.03,2.23.15,3.38.56,1.15.41,2.15.97,2.99,1.68.84.71,1.5,1.53,1.98,2.47.48.94.76,1.94.83,2.99.07,1.06-.09,2.14-.47,3.24-.38,1.09-.94,2.02-1.66,2.81-.72.79-1.57,1.39-2.53,1.82-.96.43-2,.65-3.09.68-1.1.03-2.22-.16-3.36-.56ZM467.75,196.05c.65.23,1.3.33,1.93.29s1.23-.19,1.8-.47,1.07-.66,1.49-1.14c.43-.48.77-1.07,1.01-1.77.25-.7.35-1.37.32-2.01-.03-.64-.18-1.25-.45-1.82-.27-.57-.64-1.07-1.1-1.49-.47-.42-1.03-.75-1.68-.98-.65-.23-1.3-.33-1.94-.3-.64.03-1.24.19-1.8.47-.56.28-1.06.66-1.48,1.14-.43.48-.77,1.07-1.01,1.77s-.35,1.37-.32,2.01c.03.64.18,1.25.44,1.82.26.57.63,1.07,1.1,1.49.48.43,1.04.75,1.69.99Z"/><path class="cls-10" d="M483.89,205.83c-1.11-.51-2.06-1.16-2.83-1.95s-1.36-1.67-1.76-2.65c-.4-.98-.59-1.99-.56-3.06.02-1.06.27-2.11.75-3.16.48-1.06,1.12-1.94,1.9-2.65.78-.7,1.67-1.23,2.67-1.57,1-.34,2.05-.48,3.14-.41,1.1.06,2.2.35,3.32.86,1.11.51,2.06,1.15,2.83,1.93.77.78,1.35,1.66,1.75,2.64.4.98.59,2,.56,3.06-.02,1.06-.27,2.12-.76,3.18-.48,1.05-1.11,1.93-1.9,2.65-.79.72-1.68,1.25-2.68,1.59-1,.34-2.05.47-3.14.4-1.1-.07-2.19-.36-3.29-.86ZM485.13,203.06c.63.29,1.26.44,1.89.46.63.02,1.24-.08,1.83-.31s1.12-.56,1.59-1c.47-.44.86-1,1.16-1.67.31-.67.47-1.33.5-1.97.03-.64-.07-1.26-.28-1.86s-.54-1.12-.97-1.59c-.43-.46-.96-.84-1.59-1.13-.63-.29-1.27-.44-1.9-.47-.64-.02-1.25.08-1.83.31-.58.23-1.11.56-1.58,1.01-.47.44-.86,1-1.16,1.67-.31.67-.47,1.33-.5,1.97-.03.64.06,1.26.27,1.85.21.59.53,1.12.97,1.59.44.47.97.84,1.6,1.13Z"/><path class="cls-10" d="M493.88,210.35l7.48-13.57,3.16,1.74-6.07,11.01,6.77,3.73-1.41,2.56-9.92-5.47Z"/><path class="cls-10" d="M514.39,218.58c-.43-.28-.75-.64-.96-1.07-.21-.43-.3-.89-.28-1.38.02-.49.18-.96.49-1.42.3-.46.67-.79,1.11-.99.44-.21.89-.3,1.37-.27.48.02.93.18,1.36.46.42.28.74.63.95,1.07.22.43.32.89.3,1.38-.02.48-.18.95-.48,1.41s-.67.79-1.11,1c-.44.21-.9.3-1.39.28-.49-.03-.94-.18-1.36-.46Z"/><path class="cls-10" d="M528.07,233.06c-.96-.77-1.71-1.63-2.27-2.58-.56-.96-.91-1.96-1.05-3-.15-1.04-.08-2.08.2-3.1.28-1.02.78-1.98,1.5-2.88.73-.91,1.56-1.61,2.49-2.1.93-.49,1.92-.78,2.98-.86,1.05-.08,2.1.04,3.15.37,1.05.33,2.05.88,3.01,1.65.96.77,1.71,1.62,2.27,2.57.56.95.91,1.94,1.05,2.99.15,1.04.08,2.08-.2,3.1-.28,1.02-.79,1.99-1.52,2.9-.72.9-1.55,1.6-2.49,2.1-.94.5-1.94.8-2.99.88-1.05.08-2.1-.04-3.14-.38-1.04-.34-2.04-.88-2.98-1.64ZM529.95,230.68c.54.43,1.12.74,1.72.91s1.22.23,1.85.15c.63-.07,1.22-.27,1.79-.58.56-.31,1.08-.76,1.54-1.33.46-.58.78-1.17.97-1.79.18-.62.24-1.24.18-1.87s-.25-1.22-.55-1.77c-.3-.55-.72-1.05-1.27-1.48-.54-.43-1.12-.74-1.73-.92-.61-.18-1.23-.23-1.85-.15-.62.08-1.21.28-1.78.59s-1.08.76-1.54,1.33c-.46.58-.78,1.17-.97,1.79-.18.62-.25,1.24-.19,1.86s.24,1.21.55,1.77c.31.56.73,1.06,1.27,1.49Z"/><path class="cls-10" d="M536.68,239.93l10.57-11.32,2.64,2.46-8.58,9.19,5.65,5.27-1.99,2.14-8.28-7.73Z"/><path class="cls-10" d="M546.29,248.95l11.38-10.51,4.78,5.17c1.14,1.24,1.91,2.54,2.31,3.92.4,1.38.42,2.73.06,4.04-.36,1.32-1.12,2.51-2.26,3.57-1.15,1.06-2.39,1.72-3.74,1.97-1.34.26-2.68.13-4.03-.38-1.34-.51-2.58-1.38-3.73-2.61l-4.78-5.17ZM550.88,249.62l2.21,2.39c.7.76,1.45,1.28,2.26,1.58.8.29,1.62.35,2.44.16.82-.19,1.59-.61,2.31-1.27.73-.67,1.21-1.41,1.46-2.21.25-.8.25-1.61.03-2.43-.23-.82-.69-1.62-1.39-2.37l-2.21-2.39-7.09,6.55Z"/><path class="cls-10" d="M565.21,271.55c-.74-.99-1.32-2.05-1.74-3.16-.42-1.12-.62-2.11-.61-2.98l2.89-.64c0,.8.17,1.66.47,2.58.3.92.73,1.74,1.29,2.49.42.57.82.98,1.2,1.24.38.26.73.4,1.05.42.32.02.61-.07.87-.26.33-.25.5-.57.5-.98,0-.41-.1-.87-.29-1.4-.2-.52-.43-1.08-.7-1.68-.27-.59-.51-1.21-.74-1.84-.22-.63-.36-1.27-.42-1.9-.06-.63.04-1.23.28-1.81.24-.58.69-1.11,1.34-1.59.71-.53,1.5-.82,2.37-.88.87-.06,1.76.17,2.69.69.93.51,1.83,1.36,2.7,2.53.58.78,1.06,1.62,1.44,2.53.38.9.6,1.77.67,2.6l-2.84.71c-.09-.79-.28-1.55-.56-2.26-.28-.71-.62-1.34-1.03-1.88-.42-.57-.82-.98-1.2-1.23-.38-.25-.74-.38-1.07-.38-.33,0-.63.1-.89.29-.33.25-.5.58-.51.99,0,.41.09.87.3,1.38.2.51.44,1.07.72,1.67.28.61.52,1.22.73,1.86.21.63.35,1.26.41,1.87.06.62-.02,1.22-.26,1.81-.23.59-.67,1.12-1.31,1.6-.7.52-1.48.8-2.35.85-.87.05-1.77-.19-2.7-.7-.94-.52-1.84-1.36-2.71-2.53Z"/><path class="cls-10" d="M574.41,284.93c-.64-1.01-1.08-2.05-1.3-3.12-.22-1.08-.23-2.12-.03-3.15.2-1.02.6-1.98,1.2-2.85.59-.88,1.38-1.63,2.36-2.26s2-1.03,3.04-1.2c1.05-.17,2.08-.13,3.1.12,1.02.25,1.97.7,2.85,1.36.88.65,1.64,1.48,2.29,2.49.72,1.13,1.18,2.28,1.38,3.45.2,1.17.11,2.31-.25,3.42l-3.04-.81c.23-.76.3-1.5.21-2.22s-.35-1.4-.76-2.05c-.39-.61-.85-1.1-1.38-1.48-.53-.38-1.1-.64-1.71-.77-.61-.13-1.24-.14-1.88-.02-.64.12-1.27.38-1.89.78-.62.4-1.12.86-1.5,1.39-.38.53-.64,1.1-.77,1.71-.13.61-.14,1.24-.02,1.88.12.64.38,1.27.77,1.88.41.65.93,1.16,1.55,1.54.62.38,1.33.63,2.11.74l-.54,3.1c-1.16-.14-2.23-.54-3.21-1.2-.99-.67-1.84-1.57-2.58-2.71Z"/><path class="cls-10" d="M580.88,295.28l-1.69-3.19,13.68-7.27,1.69,3.19-13.68,7.27ZM597.85,294.21l1.68,3.17-13.68,7.27-1.68-3.17,13.68-7.27ZM589.9,298.73l-3.55-6.68,2.68-1.42,3.55,6.68-2.68,1.42Z"/><path class="cls-10" d="M590.07,314.82c-.48-1.13-.74-2.24-.78-3.35-.04-1.11.13-2.15.49-3.14.36-.99.91-1.87,1.65-2.64s1.63-1.38,2.69-1.83c1.07-.46,2.14-.68,3.19-.67,1.05,0,2.06.23,3.03.65.97.42,1.83,1.03,2.6,1.82.77.79,1.39,1.75,1.87,2.87.48,1.13.74,2.24.78,3.34.04,1.1-.12,2.14-.49,3.13-.37.99-.91,1.87-1.65,2.64s-1.63,1.38-2.71,1.84c-1.06.45-2.12.67-3.19.67-1.07,0-2.08-.22-3.05-.64-.97-.42-1.83-1.03-2.59-1.82-.76-.79-1.38-1.74-1.85-2.86ZM592.85,313.61c.27.64.63,1.18,1.09,1.62s.97.78,1.56,1.01c.59.23,1.2.34,1.85.33.65-.01,1.31-.16,1.99-.45s1.25-.66,1.7-1.12.8-.98,1.04-1.56c.24-.58.36-1.19.36-1.82,0-.63-.14-1.27-.41-1.9-.27-.64-.63-1.18-1.09-1.63s-.98-.78-1.56-1.01c-.58-.23-1.2-.33-1.84-.32-.65.01-1.31.16-1.99.45-.68.29-1.25.66-1.7,1.12-.45.46-.8.98-1.05,1.55-.24.58-.36,1.18-.36,1.82,0,.64.15,1.28.42,1.91Z"/><path class="cls-10" d="M596.53,332.08c-.38-1.16-.54-2.3-.48-3.41.06-1.11.32-2.14.77-3.09.45-.95,1.08-1.78,1.87-2.48.8-.7,1.74-1.23,2.84-1.58,1.11-.36,2.19-.49,3.24-.39,1.05.1,2.04.41,2.96.91.92.51,1.73,1.19,2.43,2.04.7.85,1.23,1.86,1.61,3.03.38,1.16.54,2.3.48,3.39-.06,1.1-.31,2.12-.76,3.07-.45.95-1.08,1.78-1.87,2.48-.8.7-1.75,1.23-2.86,1.59-1.1.35-2.17.48-3.24.39-1.06-.1-2.06-.4-2.98-.91-.92-.51-1.73-1.19-2.42-2.04-.69-.85-1.22-1.86-1.59-3.01ZM599.41,331.13c.21.66.53,1.23.94,1.71.41.48.9.86,1.46,1.14.56.28,1.17.45,1.81.49.64.05,1.32-.04,2.02-.27.7-.23,1.3-.55,1.79-.97.49-.42.89-.9,1.18-1.46.29-.56.46-1.15.52-1.78.05-.63-.03-1.27-.24-1.93-.21-.66-.53-1.23-.94-1.72-.41-.49-.9-.87-1.46-1.14s-1.17-.44-1.81-.48-1.32.04-2.02.27c-.7.23-1.3.55-1.79.97-.49.42-.89.9-1.18,1.45-.29.55-.47,1.15-.52,1.78-.05.64.03,1.28.25,1.94Z"/><path class="cls-10" d="M599.94,342.51l15.06-3.65.85,3.51-12.22,2.96,1.82,7.51-2.84.69-2.67-11.01Z"/><path class="cls-10" d="M604.12,361.55l15.35-2.12.92,6.64c.19,1.37.13,2.59-.18,3.64-.31,1.06-.84,1.91-1.6,2.57s-1.71,1.06-2.85,1.22c-1.15.16-2.18.03-3.08-.4-.9-.43-1.64-1.11-2.2-2.04-.57-.94-.95-2.09-1.14-3.46l-.65-4.69,1.76,1.41-5.83.81-.49-3.57ZM605.47,371.33l5.03-4.63.53,3.82-5.03,4.63-.53-3.82ZM610.05,364.38l1.46-1.86.62,4.49c.15,1.08.5,1.87,1.04,2.36.54.49,1.24.68,2.09.56.85-.12,1.46-.48,1.85-1.1.38-.62.5-1.47.35-2.55l-.62-4.5,1.91,1.39-8.7,1.2Z"/><path class="cls-10" d="M606.35,384.38c-.13-2.2.38-3.95,1.53-5.26,1.15-1.31,2.87-2.03,5.15-2.16l8.64-.51.21,3.6-8.55.5c-1.46.09-2.5.45-3.12,1.09-.62.64-.9,1.5-.84,2.58.06,1.09.44,1.92,1.13,2.48.69.57,1.77.81,3.22.72l8.55-.5.21,3.51-8.64.51c-2.28.13-4.07-.38-5.37-1.55-1.3-1.17-2.01-2.84-2.13-5.02Z"/><path class="cls-10" d="M607.04,394.72l15.49.25-.06,3.61-12.57-.2-.13,7.72-2.92-.05.18-11.33Z"/><path class="cls-10" d="M609.35,411.77l-.66,8.41-2.87-.23.94-11.96,15.45,1.22-.92,11.67-2.87-.23.64-8.12-9.71-.76ZM615.75,412l-.58,7.44-2.8-.22.58-7.44,2.8.22Z"/><path class="cls-10" d="M604.47,427.64c.18-1.23.52-2.38,1.01-3.46s1.06-1.93,1.68-2.54l2.49,1.6c-.56.57-1.06,1.29-1.49,2.15-.43.86-.72,1.75-.85,2.67-.1.7-.11,1.28-.03,1.73.08.45.23.8.44,1.04.21.24.48.38.8.43.41.06.76-.05,1.05-.34.29-.29.55-.68.78-1.19s.46-1.07.69-1.68c.23-.61.49-1.21.78-1.82s.64-1.15,1.05-1.64c.41-.48.9-.84,1.48-1.08.58-.24,1.27-.29,2.07-.18.88.13,1.64.48,2.29,1.05.65.57,1.13,1.37,1.41,2.39.29,1.02.33,2.25.11,3.7-.14.96-.4,1.9-.77,2.81-.37.91-.83,1.68-1.37,2.31l-2.51-1.51c.5-.63.9-1.29,1.2-1.99.3-.7.51-1.39.61-2.06.1-.7.11-1.27.02-1.72-.09-.45-.25-.79-.49-1.02-.23-.24-.51-.38-.83-.42-.41-.06-.76.05-1.06.34-.3.28-.55.68-.77,1.18-.22.51-.44,1.07-.67,1.69-.23.62-.5,1.23-.8,1.83-.3.6-.64,1.14-1.03,1.62-.39.48-.88.84-1.46,1.09-.58.25-1.27.32-2.05.2-.86-.13-1.61-.48-2.26-1.06-.65-.58-1.12-1.38-1.41-2.41s-.34-2.26-.12-3.71Z"/><polygon class="cls-3" points="396.85 396.85 396.85 396.85 396.85 396.85 396.85 396.85"/><polygon class="cls-6" points="262.19 346.51 328.63 375.57 312.02 381 359.93 409.75 342.68 414.54 381.97 445.52 304.67 417.73 324.16 411.03 279.12 384.52 297.64 378.77 262.19 346.51"/><polygon class="cls-6" points="252.09 433.45 309.04 425.38 299.46 436.24 343.86 436.55 333.32 446.78 372.26 453.36 309.36 462.43 320.54 451.25 279.66 450.93 288.82 439.64 252.09 433.45"/><path class="cls-1" d="M356.39,511.76c11.25-2.54,23.21-1.64,34.12-5.69,16.13-5.99,31.96-12.79,47.92-19.22,2.55-1.03,4.78-2.42,6.88-4.27,13.39-11.77,23.82-25.4,28.28-43.17,1.38-5.5,4.29-10.6,5.73-16.09,6.6-25.25,14.92-50.48,3.96-76.68-.35-.83-.29-1.81-.58-2.68-.36-1.08-.83-2.35-2.11-2.42-5.42-.3-10.8-2.05-17.24-1.2,10.79,12.5,11.39,26.69,9.96,40.87-2.85,28.24-10.88,54.97-25.27,79.57-1.14,1.95-1.87,4.34-4.25,5.08-16.41,5.11-28.59,17.33-42.92,25.91-11,6.59-22.64,13.2-35.43,12.58-24.74-1.2-49.48-.11-74.19-1.23-1.98-1.17-3.98-1.34-6.03-.18-.58-.07-1.16-.13-1.74-.2-2.25-1.03-4.51-.97-7.48.02,2.61,1.32,4.56,2.61,7.12,1.9,4.93.73,9.85,1.55,14.79,2.17,19.42,2.41,38.39,9.46,58.46,4.92Z"/><path class="cls-1" d="M328.89,482.28c13.41-1.07,25.33-7.89,38.44-9.62,10.54-1.39,19.2-5.87,27.27-12.58,9.61-8,19.73-15.38,29.63-23.03,4.55-3.52,8.08-7.85,11.01-12.86,7.56-12.95,9.5-27.55,11.83-41.88,2.06-12.63,1.75-25.44-4.48-37.33-.83-1.59-.9-3.72-2.88-4.33-13.24-4.09-25.61-12.24-40.4-9.17-6.05,1.26-11.69,3.81-15.41,8.96-4.3,5.96-.44,11.2,3.18,15.38,3.26,3.77,8.5,3.81,13.15,2.45,4.24-1.24,8.27-3.2,12.68-4.95-.42,17.98-9.95,30.66-26.02,34.91-3.77,1-7.36,3.66-11.71,1.66-9.62-4.43-19.06-8.83-17.53-22.25.19-1.7-.78-3.54-1.22-5.31-.26-2.41-.7-4.76-2.09-6.91-3.57,3.95-.77,7.88-.33,11.76,1.02,6.03,2.04,12.07,3.27,19.34-5.88-4.62-10.34-8.97-15.55-12.03-9.65-5.67-13.71-14.12-13.7-24.84,0-5.15-2.29-8.12-6.83-9.7-8.03-2.81-11.89-8.32-11.28-17,.12-1.78-.75-3.61-.71-5.41.2-9.88,2.37-25.71,15.28-30.24,3.48-1.22,3.03-3.43,2.7-6.47-1.44-12.98-8.18-26.04.61-38.77-2.01-1.1-3.1.15-4.18.68-31.47,15.54-56.39,37.85-74.24,68.8-12.55,21.77-20.26,44.54-22.68,69.37-1.77,12.06-1.81,24.11.13,36.16.56,10.34,3.06,20.29,5.7,30.24,1.06,3.97,3.03,6.81,6.44,9.14,12.01,8.21,23.89,16.61,35.73,25.08,2.72,1.95,5.53,2.64,8.8,2.95,15.26,1.47,30.28-1,45.39-2.21Z"/><path class="cls-2" d="M447.71,221.71c-2.69-.78-5.41-1.5-8.15-2.16-13.7-3.29-28-5.04-42.71-5.04-100.7,0-182.34,81.63-182.34,182.34,0,32.05,8.28,62.16,22.8,88.32,31.1,56.06,90.89,94.01,159.54,94.01,39.17,0,75.45-12.36,105.17-33.37,46.68-33.02,77.17-87.43,77.17-148.96,0-83.05-55.52-153.12-131.47-175.14ZM238.97,456.45c-3.4-2.33-5.38-5.17-6.44-9.14-2.64-9.95-5.14-19.9-5.7-30.24-1.94-12.04-1.9-24.1-.13-36.16,2.41-24.84,10.12-47.6,22.68-69.37,17.85-30.95,42.76-53.26,74.24-68.8,1.08-.53,2.17-1.78,4.18-.68-8.79,12.73-2.05,25.78-.61,38.77.34,3.04.79,5.25-2.7,6.47-12.9,4.53-15.07,20.35-15.28,30.24-.04,1.8.84,3.64.71,5.41-.61,8.68,3.25,14.2,11.28,17,4.53,1.59,6.84,4.55,6.83,9.7-.02,10.73,4.04,19.18,13.7,24.84,5.21,3.06,9.67,7.41,15.55,12.03-1.23-7.27-2.25-13.31-3.27-19.34-.44-3.88-3.24-7.81.33-11.76,1.38,2.14,1.83,4.49,2.09,6.91.44,1.77,1.41,3.61,1.22,5.31-1.52,13.41,7.91,17.82,17.53,22.25,4.35,2,7.94-.66,11.71-1.66,16.06-4.25,25.6-16.93,26.02-34.91-4.41,1.76-8.44,3.72-12.68,4.95-4.65,1.36-9.89,1.32-13.15-2.45-3.62-4.18-7.48-9.42-3.18-15.38,3.71-5.14,9.35-7.7,15.41-8.96,14.79-3.07,27.16,5.07,40.4,9.17,1.98.61,2.05,2.74,2.88,4.33,6.23,11.89,6.54,24.7,4.48,37.33-2.33,14.32-4.27,28.93-11.83,41.88-2.93,5.02-6.46,9.34-11.01,12.86-9.89,7.66-20.01,15.04-29.63,23.03-8.07,6.71-16.72,11.19-27.27,12.58-13.12,1.73-25.04,8.55-38.44,9.62-15.11,1.21-30.14,3.67-45.39,2.21-3.27-.31-6.08-1.01-8.8-2.95-11.83-8.47-23.72-16.87-35.73-25.08ZM276.01,502.77c2.97-.99,5.23-1.04,7.48-.02.58.07,1.16.13,1.74.2,2.05-1.16,4.05-.98,6.03.18,24.71,1.12,49.45.03,74.19,1.23,12.79.62,24.43-5.99,35.43-12.58,14.33-8.59,26.51-20.8,42.92-25.91,2.38-.74,3.11-3.13,4.25-5.08,14.39-24.6,22.42-51.33,25.27-79.57,1.43-14.18.83-28.37-9.96-40.87,6.44-.85,11.82.91,17.24,1.2,1.28.07,1.75,1.34,2.11,2.42.29.86.23,1.85.58,2.68,10.96,26.2,2.64,51.42-3.96,76.68-1.43,5.49-4.35,10.59-5.73,16.09-4.46,17.78-14.89,31.4-28.28,43.17-2.1,1.84-4.33,3.24-6.88,4.27-15.97,6.43-31.8,13.23-47.92,19.22-10.91,4.06-22.87,3.15-34.12,5.69-20.07,4.53-39.05-2.52-58.46-4.92-4.94-.61-9.86-1.44-14.79-2.17-2.56.7-4.52-.58-7.12-1.9ZM562.89,434.55c-3.2,2.24-1.51,5.88-2.39,8.8-4.6,15.31-10.38,30.05-18.65,43.8-2.46,4.08-6.85,3.1-10.01,5.8-16.94,14.5-34.9,27.81-51.59,42.57-9.69,8.56-20.25,12.77-32.72,14.51-20.64,2.87-41.16,6.67-61.71,10.14-2.44.41-5.28,1.84-5.54-2.24-.26-3.98,3.09-2.07,4.79-2.31,16.83-2.37,33.7-4.5,50.53-6.86,5.47-.77,10.31-3.4,14.93-6.31,20.37-12.81,41.38-24.74,60.81-38.87,13.04-9.48,24.67-21.32,27.92-38.9,1.65-8.98.16-16.19-6.75-22.2-2.73-2.38-5.23-5.05-7.83-7.58-10.51,9.75-18.11,21.46-20.78,35.8-2.86,15.36-10.82,26.62-24.46,33.9-.2.11-.41.22-.57.37-24.1,24.8-56.32,29-87.74,35.55-20.01,4.17-40.28,1.79-60.36,3.64-1.86.17-3.93-.9-5.78-1.69-11.42-4.88-22.81-9.84-34.42-14.87,2.45-1.74,4.93-.91,7.27-.22,10.4,3.09,20.99,5.53,30.61,11.01,6.42,3.66,13.2.78,19.93.18,21.87-1.96,42.86-8.83,64.9-10.42,17.42-1.26,34.18-7.1,46.73-20.94.76-.84,1.53-1.72,2.44-2.39,16.16-11.91,26.73-27.85,33.89-46.5,3.75-9.77,3.95-20.09,5.82-30.14,3.76-20.21,5.58-40.68,7.07-62.85,5.93,12.84,8.47,25.03,10.8,37.28,6.11-32.31-2.54-66.7-20.11-80.55,3.07,10.01,6.86,19.52,3.89,30.27-14.37-21.55-26.19-45.59-53.28-52.96-15.54-4.23-31.7-6.87-49.43-.02,19.57,2.78,38.05,4.37,54.44,16.92-5.49,1.09-9.42-.78-13.33-1.63-15.08-3.27-30.13-6.52-45.73-5-7.05.69-16.18,7.49-17.97,14.28-2.37,9.01-6.58,17.6-7.04,27.03-.44,8.97,6.12,15.23,14.91,15.04,1.52-.03,3.05,0,4.86,0-6.94,8.17-20.24,7.45-26.3-.73-8.45-11.42-6.34-24-4.57-36.63.28-1.99,2.21-3.59,1.14-6.31-3.02,2.01-3.98,5.28-5.52,8.04-2.58,4.65-4.41,9.32-9.17,12.98-4.62,3.54-3.39,10.32-1.65,15.86.67,2.12,2.03,4.01,3.14,6.12-10.04-2.87-12.31-6.04-12.41-15.8-.08-8.14.66-15.91,5.61-22.78,1.01-1.4,3.75-4.02-1.08-4.26-.39-.38-.77-.76-1.16-1.13,2.46-5.41,4.35-10.99,3.79-17.04-.35-3.86-1.6-5.87-6.45-4.36-14.13,4.4-21.76,16.15-18.64,29.84-.39.28-.78.56-1.17.84-5.94-6.66-1.9-13.81-.56-20.55,2.72-13.64,14.03-18.92,25.17-23.29,9.22-3.62,18.99-5.99,28.69-8.11,4.55-1,7.88-2.97,10.87-6.26,4.67-5.14,3.75-9.29-3.17-10.38-10.08-1.59-19.75.23-28.42,6.17-2.63,1.8-1.04,4.55-2,6.84-3.98-1.44-4.01-4.38-4.34-8.09-1.34-15.08,9.74-19.56,20.06-24.38,19.01-8.88,39.82-10.64,60.15-12.99,12.78-1.48,25.26,4.56,37.17,9.55,36.6,15.33,64.73,40.46,84.34,75.23,1.22,2.17,2.53,4.29,3.8,6.43,9.21,19.64,14.73,40.35,17.69,61.81.07,2.3.13,4.59.2,6.89.76,6.2-3.18,12.51.39,18.65-1.1,7.96-2.19,15.92-3.29,23.88-.22.83-.43,1.67-.65,2.5Z"/><path class="cls-8" d="M566.44,389.51c-.07-2.3-.13-4.59-.2-6.89-2.96-21.46-8.48-42.17-17.69-61.81-1.27-2.14-2.58-4.26-3.8-6.43-19.61-34.77-47.74-59.9-84.34-75.23-11.91-4.99-24.39-11.03-37.17-9.55-20.33,2.35-41.14,4.1-60.15,12.99-10.32,4.82-21.39,9.3-20.06,24.38.33,3.71.36,6.65,4.34,8.09.96-2.3-.62-5.04,2-6.84,8.68-5.94,18.34-7.77,28.42-6.17,6.92,1.09,7.84,5.24,3.17,10.38-2.99,3.29-6.32,5.26-10.87,6.26-9.7,2.13-19.47,4.49-28.69,8.11-11.14,4.37-22.45,9.65-25.17,23.29-1.34,6.73-5.38,13.88.56,20.55.39-.28.78-.56,1.17-.84-3.11-13.69,4.51-25.44,18.64-29.84,4.86-1.51,6.1.5,6.45,4.36.56,6.05-1.34,11.63-3.79,17.04.39.38.77.76,1.16,1.13,4.82.24,2.09,2.86,1.08,4.26-4.96,6.87-5.69,14.64-5.61,22.78.1,9.77,2.36,12.94,12.41,15.8-1.1-2.11-2.47-4-3.14-6.12-1.74-5.54-2.96-12.32,1.65-15.86,4.76-3.65,6.59-8.32,9.17-12.98,1.53-2.77,2.5-6.04,5.52-8.04,1.08,2.72-.86,4.32-1.14,6.31-1.77,12.63-3.88,25.21,4.57,36.63,6.06,8.18,19.35,8.9,26.3.73-1.81,0-3.33-.03-4.86,0-8.79.19-15.35-6.07-14.91-15.04.46-9.43,4.68-18.02,7.04-27.03,1.78-6.8,10.91-13.6,17.97-14.28,15.61-1.52,30.65,1.73,45.73,5,3.91.85,7.83,2.72,13.33,1.63-16.39-12.55-34.87-14.14-54.44-16.92,17.73-6.85,33.89-4.21,49.43.02,27.08,7.37,38.9,31.41,53.28,52.96,2.98-10.75-.82-20.25-3.89-30.27,17.57,13.85,26.22,48.24,20.11,80.55-2.32-12.26-4.87-24.45-10.8-37.28-1.49,22.16-3.31,42.63-7.07,62.85-1.87,10.05-2.07,20.36-5.82,30.14-7.16,18.65-17.73,34.6-33.89,46.5-.91.67-1.67,1.55-2.44,2.39-12.55,13.84-29.31,19.68-46.73,20.94-22.04,1.59-43.03,8.46-64.9,10.42-6.73.6-13.51,3.49-19.93-.18-9.61-5.48-20.21-7.92-30.61-11.01-2.34-.69-4.82-1.52-7.27.22,11.61,5.03,22.99,9.99,34.42,14.87,1.85.79,3.91,1.86,5.78,1.69,20.08-1.85,40.35.53,60.36-3.64,31.43-6.55,63.65-10.75,87.74-35.55.16-.16.37-.27.57-.37,13.63-7.28,21.6-18.54,24.46-33.9,2.67-14.34,10.28-26.05,20.78-35.8,2.6,2.54,5.09,5.2,7.83,7.58,6.9,6.01,8.4,13.22,6.75,22.2-3.24,17.59-14.87,29.42-27.92,38.9-19.43,14.13-40.44,26.06-60.81,38.87-4.62,2.91-9.47,5.54-14.93,6.31-16.83,2.36-33.7,4.49-50.53,6.86-1.7.24-5.05-1.67-4.79,2.31.26,4.08,3.1,2.65,5.54,2.24,20.56-3.48,41.07-7.27,61.71-10.14,12.47-1.73,23.03-5.94,32.72-14.51,16.7-14.76,34.66-28.06,51.59-42.57,3.16-2.7,7.56-1.72,10.01-5.8,8.27-13.75,14.05-28.49,18.65-43.8.88-2.92-.81-6.55,2.39-8.8.22-.83.43-1.67.65-2.5,1.1-7.96,2.19-15.92,3.29-23.88-3.56-6.14.37-12.45-.39-18.65Z"/><path class="cls-8" d="M356.39,511.76c11.25-2.54,23.21-1.64,34.12-5.69,16.13-5.99,31.96-12.79,47.92-19.22,2.55-1.03,4.78-2.42,6.88-4.27,13.39-11.77,23.82-25.4,28.28-43.17,1.38-5.5,4.29-10.6,5.73-16.09,6.6-25.25,14.92-50.48,3.96-76.68-.35-.83-.29-1.81-.58-2.68-.36-1.08-.83-2.35-2.11-2.42-5.42-.3-10.8-2.05-17.24-1.2,10.79,12.5,11.39,26.69,9.96,40.87-2.85,28.24-10.88,54.97-25.27,79.57-1.14,1.95-1.87,4.34-4.25,5.08-16.41,5.11-28.59,17.33-42.92,25.91-11,6.59-22.64,13.2-35.43,12.58-24.74-1.2-49.48-.11-74.19-1.23-2.03.48-4.04.61-6.03-.18-.58-.07-1.16-.13-1.74-.2-.12.64-.24,1.28-.36,1.92,4.93.73,9.85,1.55,14.79,2.17,19.42,2.41,38.39,9.46,58.46,4.92Z"/><path class="cls-10" d="M39.95,372.76v-17.25h3.26l2.45,12.6,2.3-12.6h3.28v17.25h-2.34v-6.43l.1-5.9-2.32,12.25h-2.09l-2.42-12.25.1,5.9v6.43h-2.32Z"/><path class="cls-10" d="M57.38,372.95c-.84,0-1.53-.19-2.09-.58-.56-.39-.97-.95-1.25-1.69-.28-.74-.42-1.64-.42-2.69v-7.52c0-.79.07-1.5.2-2.14s.34-1.18.64-1.63.69-.8,1.18-1.04c.49-.24,1.09-.36,1.81-.36.65,0,1.21.11,1.67.32.46.21.84.52,1.13.92s.5.88.64,1.45c.13.57.2,1.2.2,1.91v2.37h-2.54v-2.21c0-.85-.07-1.47-.22-1.88s-.43-.6-.86-.6c-.48,0-.8.22-.96.65-.16.43-.24,1.04-.24,1.82v8.06c0,.6.03,1.09.1,1.48.07.38.18.66.35.84.16.18.39.27.69.27.44,0,.74-.21.9-.63.16-.42.24-1.08.24-1.99v-2.47h2.58v2.44c0,1.09-.13,2-.38,2.73-.25.73-.66,1.27-1.21,1.63-.55.36-1.27.54-2.15.54Z"/><path class="cls-10" d="M63.34,372.76v-17.25h3.26l2.45,12.6,2.3-12.6h3.28v17.25h-2.34v-6.43l.1-5.9-2.32,12.25h-2.09l-2.42-12.25.1,5.9v6.43h-2.32Z"/><path class="cls-10" d="M76.35,372.76l2.66-9.25-2.65-8h2.21l1.71,5.13,1.38-5.13h2.46l-2.61,8.83,2.81,8.42h-2.27l-1.75-5.3-1.42,5.3h-2.54Z"/><path class="cls-10" d="M89.27,372.95c-.84,0-1.53-.19-2.09-.58-.56-.39-.97-.95-1.25-1.69-.28-.74-.42-1.64-.42-2.69v-7.52c0-.79.07-1.5.2-2.14s.34-1.18.64-1.63.69-.8,1.18-1.04c.49-.24,1.09-.36,1.81-.36.65,0,1.21.11,1.67.32.46.21.84.52,1.13.92s.5.88.64,1.45c.13.57.2,1.2.2,1.91v2.37h-2.54v-2.21c0-.85-.07-1.47-.22-1.88s-.43-.6-.86-.6c-.48,0-.8.22-.96.65-.16.43-.24,1.04-.24,1.82v8.06c0,.6.03,1.09.1,1.48.07.38.18.66.35.84.16.18.39.27.69.27.44,0,.74-.21.9-.63.16-.42.24-1.08.24-1.99v-2.47h2.58v2.44c0,1.09-.13,2-.38,2.73-.25.73-.66,1.27-1.21,1.63-.55.36-1.27.54-2.15.54Z"/><path class="cls-10" d="M96.99,372.76l-2.68-17.25h2.5l1.13,7.79.7,5.49h.07l.6-5.49.94-7.79h2.45l-2.46,17.25h-3.24Z"/><path class="cls-10" d="M104.41,372.76v-17.25h2.63v17.25h-2.63Z"/><path class="cls-10" d="M109.73,372.76v-17.25h2.63v17.25h-2.63Z"/></g></svg>